# xmcd CD database file
#
# Track frame offsets:
#	150
#	25983
#	46934
#	72572
#	92361
#	114639
#	142326
#	151575
#	167340
#	203918
#	232871
#	256568
#
# Disc length: 3471 seconds
#
# Revision: 0
# Processed by: cddbd v1.5.1PL2 Copyright (c) Steve Scherf et al.
# Submitted via: CDex 1.51
#
DISCID=920d8d0c
DTITLE=Sliding Hammers - Spin Around
DYEAR=2005
DGENRE=Jazz
TTITLE0=Work Song
TTITLE1=Spin Around
TTITLE2=I Love You
TTITLE3=Changes
TTITLE4=The Old Century
TTITLE5=Dit Nasan Pekar
TTITLE6=In The Wee Small Hours
TTITLE7=Judy
TTITLE8=Emigrant Visa
TTITLE9=For Heaven's Sake
TTITLE10=My Shining Hour
TTITLE11=Blue Monk
EXTD=YEAR: 2005
EXTT0=
EXTT1=
EXTT2=
EXTT3=
EXTT4=
EXTT5=
EXTT6=
EXTT7=
EXTT8=
EXTT9=
EXTT10=
EXTT11=
PLAYORDER=
